<?xml version="1.0" encoding="UTF-8"?>
<svg width="704px" height="550px" viewBox="0 0 704 550" version="1.1" xmlns="http://www.w3.org/2000/svg" xmlns:xlink="http://www.w3.org/1999/xlink">
    <title>Elements / Illustration / 05</title>
    <defs>
        <linearGradient x1="-9.86176051e-07%" y1="49.9999994%" x2="99.9999957%" y2="49.9999994%" id="linearGradient-1">
            <stop stop-color="#FFFFFF" offset="0%"></stop>
            <stop stop-color="#FFFFFF" stop-opacity="0.3" offset="100%"></stop>
        </linearGradient>
    </defs>
    <g id="Symbols" stroke="none" stroke-width="1" fill="none" fill-rule="evenodd">
        <g id="Elements-/-Illustration-/-05">
            <g id="Group" transform="translate(0.000000, 20.000000)">
                <rect id="Container" x="0" y="0" width="704" height="530"></rect>
                <path d="M484,528.5 C484,528.898206 483.904775,529.280436 483.733428,529.561998 C483.562081,529.84356 483.329479,530.001203 483.087165,530 L134.912777,530 C134.408664,530 134,529.328426 134,528.5 C134,527.671587 134.408664,527 134.912777,527 L483.087165,527 C483.329477,526.99882 483.562075,527.156466 483.733421,527.438026 C483.904767,527.719586 484,528.101811 484,528.5 Z" id="Path" fill="#FFFFFF" fill-rule="nonzero" opacity="0.2"></path>
            </g>
            <g id="undraw_launch_day_4e04" transform="translate(65.000000, 0.000000)" fill-rule="nonzero">
                <path d="M475.925132,312.14813 C403.465557,421.740316 369.385696,550 237.962569,550 C106.539442,550 0,443.510089 0,312.14813 C0,180.78617 118.752441,129.596601 237.962569,74.296253 C625.163905,-105.322458 638.057196,66.9298905 475.925132,312.14813 Z" id="Path" fill="#3F3D56"></path>
                <circle id="Oval" fill="#E6E6E6" cx="449.5" cy="63.5" r="44.5"></circle>
                <circle id="Oval" fill="#CBCBCB" cx="446" cy="33" r="5"></circle>
                <circle id="Oval" fill="#CBCBCB" cx="455" cy="84" r="5"></circle>
                <circle id="Oval" fill="#CBCBCB" cx="474.5" cy="55.5" r="3.5"></circle>
                <circle id="Oval" fill="#CBCBCB" cx="432.5" cy="67.5" r="11.5"></circle>
                <circle id="Oval" fill="#00C7BE" cx="297" cy="132" r="7"></circle>
                <circle id="Oval" fill="#00C7BE" cx="492" cy="151" r="7"></circle>
                <circle id="Oval" fill="#E6E6E6" cx="405.5" cy="164.5" r="4.5"></circle>
                <circle id="Oval" fill="#E6E6E6" cx="68.5" cy="302.5" r="4.5"></circle>
                <circle id="Oval" fill="#E6E6E6" cx="327.5" cy="420.5" r="4.5"></circle>
                <polygon id="Path" fill="#00C7BE" points="395.607506 294.014236 393.505177 296.102977 391.416436 294 390.014883 295.392494 392.102977 297.495471 390 299.583564 391.392494 300.985764 393.495471 298.897023 395.584211 301 396.985764 299.607506 394.897023 297.504529 397 295.416436"></polygon>
                <polygon id="Path" fill="#E6E6E6" points="106.607506 366.014883 104.504529 368.102977 102.416436 366 101.014236 367.392494 103.102977 369.495471 101 371.583564 102.392494 372.985764 104.494823 370.897023 106.583564 373 107.985764 371.607506 105.897023 369.505177 108 367.416436"></polygon>
                <polygon id="Path" fill="#E6E6E6" points="123.607506 239.014237 121.504529 241.102524 119.416436 239 118.014236 240.391976 120.102977 242.495147 118 244.584081 119.392494 245.985763 121.494823 243.897476 123.583564 246 124.985764 244.608024 122.897023 242.504853 125 240.415919"></polygon>
                <polygon id="Path" fill="#E6E6E6" points="504.607506 105.014237 502.504529 107.102524 500.416436 105 499.014236 106.391976 501.102977 108.495147 499 110.584081 500.392494 111.985763 502.495471 109.897476 504.583564 112 505.985764 110.608024 503.897023 108.504853 506 106.415919"></polygon>
                <polygon id="Path" fill="#E6E6E6" points="332.608024 165.014236 330.504853 167.102977 328.415919 165 327.014237 166.392494 329.102524 168.494823 327 170.583564 328.391976 171.985764 330.495147 169.897023 332.584081 172 333.985763 170.607506 331.897476 168.504529 334 166.416436"></polygon>
                <path d="M347.306801,272.740514 L369.715107,246.917822 L392.123407,221.09513 L404.773254,206.517807 C405.47316,205.711252 404.393074,204.452964 403.693195,205.259485 L381.284896,231.082177 L358.876597,256.904869 L346.22675,271.482199 C345.526837,272.288754 346.606923,273.547035 347.306801,272.740514 L347.306801,272.740514 Z" id="Path" fill="url(#linearGradient-1)" opacity="0.8"></path>
                <path d="M308.306805,365.740511 L330.715105,339.917819 L353.123406,314.095127 L365.773253,299.517804 C366.473159,298.711249 365.39308,297.452961 364.693195,298.259489 L342.284895,324.082181 L319.876594,349.904873 L307.226747,364.482196 C306.526841,365.288751 307.60692,366.547039 308.306805,365.740511 L308.306805,365.740511 Z" id="Path" fill="url(#linearGradient-1)" opacity="0.8"></path>
                <path d="M197,223 L239,223 L239,239.367336 C239,245.239594 234.1932,250 228.263711,250 L207.736309,250 C201.806821,250 197,245.239594 197,239.367336 L197,223 L197,223 Z" id="Path" fill="#2F2E41"></path>
                <path d="M252.657285,439.762289 C243.234992,449.32829 233.798216,449.392233 224.347084,440.07064 L217.087726,375.751961 L212.006381,440.205054 C202.561631,447.864808 193.75989,448.896183 185.873646,440.489683 C178.350709,384.801883 174.261666,333.067011 180.792281,293.556853 L167,237.547804 L198.214107,223 C204.499922,238.580499 194.586154,246.549522 217.004233,246.282792 C239.224752,246.018407 237.565226,237.642636 236.687305,223 L265.401379,234.066405 C270.477377,236.022689 273.157852,241.599067 271.520147,246.795701 L257.01277,292.829459 C262.59773,316.06766 256.863343,380.710095 252.657285,439.762289 Z" id="Path" fill="#E6E6E6"></path>
                <path d="M209.300332,496.814861 C209.300332,496.814861 186.219147,498.863773 183.127213,497.573563 L183.127213,497.573563 C182.932052,497.492121 182.7421,497.403549 182.557356,497.307847 C177.962351,494.930266 177.822341,488.271846 182.116988,485.374439 L191.224755,479.229843 L183.271488,436 L214,436.366353 L209.300332,496.814861 Z" id="Path" fill="#2F2E41"></path>
                <path d="M225.962436,496.814858 C225.962436,496.814858 249.605198,498.86377 252.772369,497.573567 L252.772369,497.573567 C252.972278,497.492125 253.166852,497.403553 253.356091,497.30785 C258.062896,494.930269 258.206313,488.271849 253.807173,485.374442 L244.477806,479.229845 L255.957359,436 L223,436 L225.962436,496.814858 Z" id="Path" fill="#2F2E41"></path>
                <path d="M170.951218,343.689 L175.581269,362.165813 C176.748453,366.823649 174.791324,371.703335 170.725669,374.272222 L170.725669,374.272222 C167.46943,376.329676 163.37952,376.565169 159.907645,374.895115 C156.435769,373.225061 154.073442,369.885889 153.659167,366.06283 L152.658535,356.828881 L149,269.068015 C149,254.14097 158.010108,240.682742 171.831223,234.965458 L179,232 L170.951218,343.689 Z" id="Path" fill="#E6E6E6"></path>
                <path d="M288,268.068647 L287.978024,268.586952 L285.021943,339.424727 L284.451236,353.111959 L284.341466,355.82753 L283.339027,365.061816 C282.891085,369.19842 280.16863,372.740694 276.280579,374.245792 C272.392527,375.750889 267.987718,374.967639 264.860326,372.215077 C261.732934,369.462514 260.404861,365.199987 261.417058,361.163717 L266.04878,342.687785 L265.946332,341.315435 L265.331722,332.730802 L258,231 L265.170724,233.963737 C278.982335,239.693667 287.986876,253.14565 288,268.068647 Z" id="Path" fill="#E6E6E6"></path>
                <path d="M220.357708,348 C193.685477,348 177.232684,339.319577 177,339.193733 L177.733908,338 C178.061602,338.177647 211.058957,355.547276 259.538219,340.491097 L260,341.799193 C247.225424,345.846511 233.840534,347.940161 220.357708,348 L220.357708,348 Z" id="Path" fill="#2F2E41"></path>
                <path d="M192.702218,416 C187.027104,402.982149 186.998331,346.40229 187,344 L188.419859,344.001414 C188.419512,344.586617 188.446198,402.67329 194,415.411976 L192.702218,416 Z" id="Path" fill="#2F2E41"></path>
                <path d="M197.135831,417 C191.85487,417 188.346054,415.937665 186.058624,414.719372 C181.893679,412.500986 181.034396,409.478151 181,409.350918 L182.436833,409.003421 L181.718417,409.17717 L182.435747,409 C182.465817,409.106027 183.215726,411.622664 186.85273,413.533911 C190.857263,415.637375 198.918118,417.207277 214.571271,412.736304 L215,414.077053 C207.50874,416.216756 201.669405,417 197.135831,417 Z" id="Path" fill="#2F2E41"></path>
                <polygon id="Rectangle" fill="#2F2E41" transform="translate(185.669126, 286.905946) rotate(-2.803850) translate(-185.669126, -286.905946) " points="184.939361 229.699225 186.398891 229.699225 186.398891 344.112666 184.939361 344.112666"></polygon>
                <path d="M243.29781,416 L242,415.411976 C247.553811,402.67329 247.580843,344.586617 247.58015,344.001414 L249,344 C249.001359,346.40229 248.97294,402.982149 243.29781,416 Z" id="Path" fill="#2F2E41"></path>
                <path d="M239.864356,417 C235.330734,417 229.492787,416.217443 222,414.07704 L222.42874,412.736295 C238.08205,417.206573 246.141178,415.638043 250.147571,413.5339 C253.784607,411.622657 254.534175,409.106027 254.563869,409 L256,409.350918 C255.965234,409.47815 255.106311,412.500978 250.941316,414.719359 C248.654224,415.937694 245.143923,417 239.864356,417 Z" id="Path" fill="#2F2E41"></path>
                <polygon id="Rectangle" fill="#2F2E41" transform="translate(251.015221, 286.905954) rotate(-87.201850) translate(-251.015221, -286.905954) " points="193.808501 286.176188 308.221941 286.176188 308.221941 287.635719 193.808501 287.635719"></polygon>
                <polygon id="Path" fill="#00C7BE" points="239 247 228.145916 263 204.804293 263 197 247 200.428242 247 206.263648 260.091153 225.957891 260.091153 235.440678 247"></polygon>
                <polygon id="Path" fill="#000000" points="264.359 255 264.641 255.519816 264.359 256"></polygon>
                <path d="M290,268.488768 L289.977526,269.003727 L275.783987,273 L267,255.97052 L275.986023,240 C284.854316,246.958773 290.004642,257.428784 290,268.488768 L290,268.488768 Z" id="Path" fill="#00C7BE"></path>
                <path d="M149,268.488768 L149.022474,269.003727 L163.216013,273 L172,255.97052 L163.013977,240 C154.145684,246.958773 148.995358,257.428784 149,268.488768 Z" id="Path" fill="#00C7BE"></path>
                <circle id="Oval" fill="#E6E6E6" cx="217.5" cy="196.5" r="38.5"></circle>
                <circle id="Oval" fill="#2F2E41" cx="218.5" cy="201.5" r="28.5"></circle>
                <polygon id="Path" fill="#00C7BE" points="285 339.568967 284.42009 353 266.099921 343.129056 265.624671 341.423936 265 333"></polygon>
                <polygon id="Path" fill="#00C7BE" points="152 339.568967 152.637901 353 172.789642 343.129056 173.313189 341.423936 174 333"></polygon>
                <polygon id="Path" fill="#2F2E41" points="228.334208 264 204.104699 264 190.689578 236.127389 190 226.102097 191.457946 226 192.127995 235.738738 205.019871 262.522309 227.55776 262.522309 244.090124 237.821526 247.609396 226.915474 249 227.372871 245.358166 238.563435"></polygon>
            </g>
        </g>
    </g>
</svg>